<svg width="18" height="18" viewBox="0 0 18 18" fill="none" xmlns="http://www.w3.org/2000/svg">
<g clip-path="url(#clip0_223_186)">
<path fill-rule="evenodd" clip-rule="evenodd" d="M9 16.3125C10.2837 16.3144 11.5451 15.9767 12.6562 15.3338V12.9375C12.6562 12.2662 12.3896 11.6223 11.9149 11.1476C11.4402 10.6729 10.7963 10.4062 10.125 10.4062H7.875C7.20367 10.4062 6.55984 10.6729 6.08514 11.1476C5.61043 11.6223 5.34375 12.2662 5.34375 12.9375V15.3338C6.45487 15.9767 7.71626 16.3144 9 16.3125ZM14.3438 12.9375V13.9916C15.3165 12.9502 15.9638 11.6473 16.2061 10.2429C16.4483 8.83859 16.2749 7.39408 15.7072 6.08695C15.1396 4.77983 14.2023 3.66706 13.0107 2.88545C11.8191 2.10383 10.4251 1.68743 9 1.68743C7.57492 1.68743 6.1809 2.10383 4.9893 2.88545C3.79769 3.66706 2.86044 4.77983 2.29275 6.08695C1.72506 7.39408 1.55168 8.83859 1.79392 10.2429C2.03616 11.6473 2.68346 12.9502 3.65625 13.9916V12.9375C3.65591 12.0677 3.92446 11.219 4.42512 10.5077C4.92577 9.79636 5.63406 9.25719 6.453 8.964C6.02819 8.47537 5.75289 7.87486 5.65995 7.23409C5.56701 6.59331 5.66035 5.93933 5.92883 5.35014C6.19732 4.76096 6.62962 4.26143 7.17416 3.91116C7.71871 3.56088 8.35252 3.37463 9 3.37463C9.64748 3.37463 10.2813 3.56088 10.8258 3.91116C11.3704 4.26143 11.8027 4.76096 12.0712 5.35014C12.3396 5.93933 12.433 6.59331 12.34 7.23409C12.2471 7.87486 11.9718 8.47537 11.547 8.964C12.3659 9.25719 13.0742 9.79636 13.5749 10.5077C14.0755 11.219 14.3441 12.0677 14.3438 12.9375ZM9 18C11.3869 18 13.6761 17.0518 15.364 15.364C17.0518 13.6761 18 11.3869 18 9C18 6.61305 17.0518 4.32387 15.364 2.63604C13.6761 0.948212 11.3869 0 9 0C6.61305 0 4.32387 0.948212 2.63604 2.63604C0.948212 4.32387 0 6.61305 0 9C0 11.3869 0.948212 13.6761 2.63604 15.364C4.32387 17.0518 6.61305 18 9 18ZM10.6875 6.75C10.6875 7.19755 10.5097 7.62678 10.1932 7.94324C9.87678 8.25971 9.44755 8.4375 9 8.4375C8.55245 8.4375 8.12322 8.25971 7.80676 7.94324C7.49029 7.62678 7.3125 7.19755 7.3125 6.75C7.3125 6.30245 7.49029 5.87322 7.80676 5.55676C8.12322 5.24029 8.55245 5.0625 9 5.0625C9.44755 5.0625 9.87678 5.24029 10.1932 5.55676C10.5097 5.87322 10.6875 6.30245 10.6875 6.75Z" fill="#212529"/>
</g>
<defs>
<clipPath id="clip0_223_186">
<rect width="18" height="18" fill="white"/>
</clipPath>
</defs>
</svg>
