<svg width="20" height="20" viewBox="0 0 20 20" fill="none" xmlns="http://www.w3.org/2000/svg">
<path d="M10.0003 5.41667C10.5529 5.41667 11.0828 5.63617 11.4735 6.02687C11.8642 6.41757 12.0837 6.94747 12.0837 7.5C12.0837 7.77359 12.0298 8.0445 11.9251 8.29726C11.8204 8.55002 11.6669 8.77969 11.4735 8.97314C11.28 9.1666 11.0503 9.32006 10.7976 9.42475C10.5448 9.52945 10.2739 9.58334 10.0003 9.58334C9.44779 9.58334 8.91789 9.36384 8.52719 8.97314C8.13649 8.58244 7.91699 8.05254 7.91699 7.5C7.91699 6.94747 8.13649 6.41757 8.52719 6.02687C8.91789 5.63617 9.44779 5.41667 10.0003 5.41667ZM10.0003 1.66667C11.5474 1.66667 13.0312 2.28125 14.1251 3.37522C15.2191 4.46918 15.8337 5.95291 15.8337 7.5C15.8337 11.875 10.0003 18.3333 10.0003 18.3333C10.0003 18.3333 4.16699 11.875 4.16699 7.5C4.16699 5.95291 4.78157 4.46918 5.87554 3.37522C6.9695 2.28125 8.45323 1.66667 10.0003 1.66667ZM10.0003 3.33334C8.89526 3.33334 7.83545 3.77233 7.05405 4.55373C6.27265 5.33513 5.83366 6.39494 5.83366 7.5C5.83366 8.33334 5.83366 10 10.0003 15.5917C14.167 10 14.167 8.33334 14.167 7.5C14.167 6.39494 13.728 5.33513 12.9466 4.55373C12.1652 3.77233 11.1054 3.33334 10.0003 3.33334Z" fill="black"/>
</svg>
