<svg width="16" height="18" viewBox="0 0 16 18" fill="none" xmlns="http://www.w3.org/2000/svg">
<path d="M15 7.2322H13.9002M2.53555 7.2322H3.63535M8.76777 0.999969V2.09977M4.36086 2.82565L5.13805 3.60357M13.1743 2.82565L12.3964 3.60357M9.24839 4.82252C6.01533 7.64462 2.53445 11.1941 1.2979 12.4735C1.00828 12.773 0.915901 13.2096 1.08271 13.5909C1.17362 13.798 1.28104 14.0242 1.39212 14.2167C1.5032 14.4092 1.64544 14.6152 1.77961 14.7974C2.02597 15.1328 2.4505 15.2707 2.85449 15.1699C4.58082 14.7384 9.39539 13.4989 13.4559 12.1102" stroke="#212529" stroke-width="1.5" stroke-linecap="round" stroke-linejoin="round"/>
<path d="M7.34242 6.56976C7.34242 6.56976 8.10898 7.33669 9.40859 9.58763C10.7082 11.8386 10.989 12.8859 10.989 12.8859M7.73981 13.9619L7.95758 14.775C8.01477 14.9886 8.02935 15.2112 8.00048 15.4304C7.97161 15.6495 7.89986 15.8609 7.78933 16.0523C7.67879 16.2437 7.53164 16.4115 7.35627 16.546C7.18089 16.6806 6.98073 16.7792 6.76722 16.8364C6.55371 16.8936 6.33102 16.9082 6.11187 16.8793C5.89272 16.8505 5.68141 16.7787 5.48999 16.6682C5.29857 16.5577 5.1308 16.4105 4.99625 16.2351C4.8617 16.0598 4.76301 15.8596 4.70582 15.6461L4.52472 14.9686M8.96793 4.33606C8.96793 4.33606 9.84668 5.29692 11.595 8.32542C13.3433 11.3539 13.7363 12.5952 13.7363 12.5952" stroke="#212529" stroke-width="1.5" stroke-linecap="round" stroke-linejoin="round"/>
</svg>
