<svg width="25" height="25" viewBox="0 0 25 25" fill="none" xmlns="http://www.w3.org/2000/svg">
<g clip-path="url(#clip0_84_399)">
<path fill-rule="evenodd" clip-rule="evenodd" d="M25 12.5C25 15.8152 23.683 18.9946 21.3388 21.3388C18.9946 23.683 15.8152 25 12.5 25C9.18479 25 6.00537 23.683 3.66116 21.3388C1.31696 18.9946 0 15.8152 0 12.5C0 9.18479 1.31696 6.00537 3.66116 3.66116C6.00537 1.31696 9.18479 0 12.5 0C15.8152 0 18.9946 1.31696 21.3388 3.66116C23.683 6.00537 25 9.18479 25 12.5ZM10.4167 6.25C10.4167 5.69747 10.6362 5.16756 11.0269 4.77686C11.4176 4.38616 11.9475 4.16667 12.5 4.16667C13.0525 4.16667 13.5824 4.38616 13.9731 4.77686C14.3638 5.16756 14.5833 5.69747 14.5833 6.25V12.5C14.5833 13.0525 14.3638 13.5824 13.9731 13.9731C13.5824 14.3638 13.0525 14.5833 12.5 14.5833C11.9475 14.5833 11.4176 14.3638 11.0269 13.9731C10.6362 13.5824 10.4167 13.0525 10.4167 12.5V6.25ZM12.5 16.6667C11.9475 16.6667 11.4176 16.8862 11.0269 17.2769C10.6362 17.6676 10.4167 18.1975 10.4167 18.75C10.4167 19.3025 10.6362 19.8324 11.0269 20.2231C11.4176 20.6138 11.9475 20.8333 12.5 20.8333C13.0525 20.8333 13.5824 20.6138 13.9731 20.2231C14.3638 19.8324 14.5833 19.3025 14.5833 18.75C14.5833 18.1975 14.3638 17.6676 13.9731 17.2769C13.5824 16.8862 13.0525 16.6667 12.5 16.6667Z" fill="black"/>
</g>
<defs>
<clipPath id="clip0_84_399">
<rect width="25" height="25" fill="white"/>
</clipPath>
</defs>
</svg>
