<svg width="17" height="17" viewBox="0 0 17 17" fill="none" xmlns="http://www.w3.org/2000/svg">
<path fill-rule="evenodd" clip-rule="evenodd" d="M2.1645 0.728962C3.22539 -0.38291 4.97231 -0.185345 5.86059 1.0662L6.9607 2.61363C7.68423 3.63177 7.61972 5.05423 6.76108 5.95384L6.55361 6.17254C6.53008 6.26434 6.52769 6.36074 6.54664 6.45372C6.60156 6.82863 6.89881 7.62256 8.14363 8.9274C9.38844 10.2322 10.1468 10.5447 10.5077 10.6035C10.5987 10.6228 10.6926 10.6199 10.7823 10.5952L11.138 10.2221C11.9016 9.42269 13.0732 9.27291 14.0181 9.81414L15.6831 10.7698C17.1101 11.5858 17.4702 13.6294 16.3021 14.8543L15.0633 16.1518C14.6728 16.5607 14.148 16.9016 13.5082 16.965C11.9304 17.1203 8.25434 16.9219 4.39 12.8723C0.7837 9.09189 0.0915541 5.79487 0.00351042 4.17025C-0.0400756 3.34875 0.32779 2.65406 0.796775 2.16337L2.1645 0.728962ZM4.81453 1.89229C4.37257 1.27019 3.54967 1.22057 3.08591 1.70667L1.71731 3.14016C1.42964 3.44156 1.29191 3.7742 1.30935 4.09214C1.37908 5.3832 1.93698 8.35768 5.31228 11.8955C8.85321 15.606 12.123 15.7172 13.387 15.5922C13.6451 15.5674 13.9013 15.4259 14.1411 15.175L15.3789 13.8766C15.8828 13.3492 15.772 12.388 15.059 11.98L13.394 11.0253C12.9337 10.7625 12.395 10.8488 12.0603 11.1998L11.6636 11.6161L11.2016 11.1273C11.6636 11.6161 11.6628 11.617 11.6619 11.617L11.661 11.6189L11.6584 11.6216L11.6523 11.6271L11.6392 11.64C11.6024 11.676 11.5628 11.7086 11.5207 11.7374C11.4509 11.7861 11.3585 11.8403 11.2426 11.8853C11.0072 11.9782 10.6952 12.0278 10.3099 11.9653C9.55407 11.8431 8.55246 11.3 7.22135 9.90512C5.8911 8.51022 5.37156 7.46084 5.25475 6.66507C5.1946 6.25891 5.24255 5.92995 5.33146 5.68184C5.3804 5.54223 5.45046 5.4119 5.53893 5.2959L5.56682 5.26374L5.57903 5.24996L5.58426 5.24445L5.58687 5.24169L5.58862 5.23985L5.83967 4.97704C6.21277 4.58467 6.26507 3.93501 5.91377 3.43972L4.81453 1.89229Z" fill="black"/>
</svg>
