<svg width="19" height="19" viewBox="0 0 19 19" fill="none" xmlns="http://www.w3.org/2000/svg">
<path d="M12.4688 9.8017V16.1797C12.4688 17.0814 11.7618 17.8125 10.8749 17.8125H3.9707C3.08193 17.8125 2.375 17.0814 2.375 16.1797V6.38281C2.37753 5.95054 2.55037 5.5367 2.85604 5.23104C3.1617 4.92537 3.57554 4.75253 4.00781 4.75H7.50055C7.62144 4.75018 7.74109 4.77443 7.85252 4.82132C7.96395 4.86821 8.06494 4.93681 8.14959 5.02313L12.2001 9.14227C12.3724 9.31849 12.4689 9.55521 12.4688 9.8017Z" stroke="black" stroke-width="1.5" stroke-linejoin="round"/>
<path d="M7.42188 4.75V8.75781C7.42515 9.03237 7.53567 9.29476 7.72983 9.48892C7.92399 9.68308 8.18638 9.7936 8.46094 9.79688H12.4688" stroke="black" stroke-width="1.5" stroke-linecap="round" stroke-linejoin="round"/>
<path d="M6.53125 4.75V2.82031C6.53378 2.38804 6.70662 1.9742 7.01229 1.66854C7.31795 1.36287 7.73179 1.19003 8.16406 1.1875H11.6523C11.7739 1.18767 11.8942 1.21189 12.0064 1.25876C12.1185 1.30564 12.2203 1.37424 12.3058 1.46063L16.3563 5.57977C16.5285 5.75413 16.625 5.98933 16.625 6.23438V12.6172C16.625 13.5189 15.9181 14.25 15.0312 14.25H12.7656" stroke="black" stroke-width="1.5" stroke-linejoin="round"/>
<path d="M11.5781 1.1875V5.19531C11.5814 5.46987 11.6919 5.73226 11.8861 5.92642C12.0802 6.12058 12.3426 6.2311 12.6172 6.23438H16.625" stroke="black" stroke-width="1.5" stroke-linecap="round" stroke-linejoin="round"/>
</svg>
