<svg width="23" height="23" viewBox="0 0 23 23" fill="none" xmlns="http://www.w3.org/2000/svg">
<circle cx="11.5" cy="11.5" r="11.5" fill="#2A9D8F"/>
<path d="M10.42 13.4722L15.9006 8.18708C16.03 8.06236 16.1809 8 16.3533 8C16.5258 8 16.6767 8.06236 16.806 8.18708C16.9353 8.3118 17 8.46001 17 8.63171C17 8.80341 16.9353 8.95142 16.806 9.07572L10.8727 14.8129C10.7433 14.9376 10.5924 15 10.42 15C10.2475 15 10.0966 14.9376 9.96729 14.8129L7.18654 12.1314C7.05721 12.0067 6.99512 11.8587 7.0003 11.6874C7.00547 11.5161 7.07294 11.3679 7.20271 11.2428C7.33248 11.1176 7.48618 11.0553 7.6638 11.0557C7.84142 11.0561 7.9949 11.1185 8.12424 11.2428L10.42 13.4722Z" fill="white"/>
</svg>
