<svg width="19" height="19" viewBox="0 0 19 19" fill="none" xmlns="http://www.w3.org/2000/svg">
<path d="M4.75 8.3125H11.2812V9.5H4.75V8.3125ZM4.75 11.2812H12.4688V12.4688H4.75V11.2812Z" fill="black"/>
<path d="M16.625 2.375H2.375C2.06006 2.375 1.75801 2.50011 1.53531 2.72281C1.31261 2.94551 1.1875 3.24756 1.1875 3.5625V15.4375C1.1875 15.7524 1.31261 16.0545 1.53531 16.2772C1.75801 16.4999 2.06006 16.625 2.375 16.625H16.625C16.9399 16.625 17.242 16.4999 17.4647 16.2772C17.6874 16.0545 17.8125 15.7524 17.8125 15.4375V3.5625C17.8125 3.24756 17.6874 2.94551 17.4647 2.72281C17.242 2.50011 16.9399 2.375 16.625 2.375ZM16.625 3.5625V4.75H2.375V3.5625H16.625ZM2.375 15.4375V5.9375H16.625V15.4375H2.375Z" fill="black" stroke="black" stroke-width="0.5"/>
</svg>
