<svg width="24" height="24" viewBox="0 0 24 24" fill="none" xmlns="http://www.w3.org/2000/svg">
<path d="M7 22V12.398C7 11.33 7 10.796 7.245 10.348C7.489 9.89999 7.938 9.611 8.837 9.033L10.919 7.695C11.444 7.358 11.706 7.189 12 7.189C12.294 7.189 12.556 7.358 13.082 7.695L15.163 9.033C16.062 9.611 16.511 9.89999 16.755 10.348C17 10.796 17 11.33 17 12.398V22" stroke="black" stroke-width="1.5" stroke-linecap="round" stroke-linejoin="round"/>
<path d="M12 13H12.009" stroke="black" stroke-width="2" stroke-linecap="round" stroke-linejoin="round"/>
<path d="M21 22V16.162C21 13.871 19.74 13.685 17 13M3 22V16.162C3 13.871 4.26 13.685 7 13M2 22H22" stroke="black" stroke-width="1.5" stroke-linecap="round" stroke-linejoin="round"/>
<path d="M12 22V18" stroke="black" stroke-width="1.5" stroke-linecap="round"/>
<path d="M12 7V4.982M12 4.982V2.97C12 2.496 12 2.259 12.146 2.112C12.606 1.649 14.5 2.743 15.22 3.187C15.828 3.561 16 4.309 16 4.982H12Z" stroke="black" stroke-width="1.5" stroke-linecap="round" stroke-linejoin="round"/>
</svg>
