<svg width="18" height="18" viewBox="0 0 18 18" fill="none" xmlns="http://www.w3.org/2000/svg">
<path d="M16.1847 1.81535C15.6616 1.29323 14.9527 1 14.2136 1C13.4745 1 12.7656 1.29323 12.2425 1.81535L7.01819 7.04006C6.9507 7.10736 6.89978 7.18943 6.86945 7.27979L5.33289 11.8898C5.29669 11.9981 5.29135 12.1143 5.31749 12.2255C5.34362 12.3366 5.40018 12.4383 5.48084 12.519C5.5615 12.5998 5.66306 12.6566 5.77415 12.6829C5.88523 12.7092 6.00145 12.704 6.10978 12.668L10.7195 11.1313C10.8103 11.1012 10.8928 11.0502 10.9604 10.9826L16.1847 5.75786C16.7068 5.23468 17 4.52574 17 3.7866C17 3.04747 16.7068 2.33852 16.1847 1.81535ZM13.1116 2.68449C13.4054 2.39977 13.7994 2.24199 14.2085 2.24522C14.6176 2.24844 15.0091 2.41241 15.2984 2.70173C15.5877 2.99106 15.7517 3.38254 15.7549 3.79169C15.7581 4.20084 15.6003 4.59486 15.3156 4.88871L10.1933 10.0102L6.88666 11.1129L7.9893 7.80595L13.1116 2.68449ZM8.37406 3.47865C8.52484 3.47865 8.67481 3.48398 8.82396 3.49463L9.90939 2.40912C8.35357 2.0783 6.7325 2.25935 5.28798 2.92525C3.84346 3.59116 2.6529 4.70624 1.8939 6.10417C1.13489 7.5021 0.848104 9.10796 1.07632 10.6822C1.30454 12.2565 2.03552 13.7148 3.16024 14.8396C4.28497 15.9644 5.74315 16.6954 7.31729 16.9237C8.89143 17.1519 10.4972 16.8651 11.895 16.106C13.2928 15.347 14.4078 14.1563 15.0737 12.7117C15.7395 11.2671 15.9206 9.64586 15.5898 8.08993L14.5043 9.17667C14.515 9.32419 14.5203 9.47376 14.5203 9.62538C14.5203 10.8411 14.1598 12.0295 13.4845 13.0403C12.8091 14.0511 11.8492 14.839 10.7261 15.3042C9.60304 15.7694 8.36724 15.8912 7.17498 15.654C5.98272 15.4168 4.88757 14.8314 4.028 13.9718C3.16843 13.1121 2.58305 12.0169 2.3459 10.8245C2.10874 9.6322 2.23046 8.39629 2.69566 7.27313C3.16085 6.14996 3.94863 5.18997 4.95938 4.51456C5.97013 3.83915 7.15844 3.47865 8.37406 3.47865Z" fill="#212529" stroke="#212529" stroke-width="0.5"/>
</svg>
