<svg width="16" height="16" viewBox="0 0 16 16" fill="none" xmlns="http://www.w3.org/2000/svg">
<mask id="path-1-inside-1_84_369" fill="white">
<path d="M15.1847 0.815347C14.6616 0.293232 13.9527 0 13.2136 0C12.4745 0 11.7656 0.293232 11.2425 0.815347L6.01819 6.04006C5.9507 6.10736 5.89978 6.18943 5.86945 6.27979L4.33289 10.8898C4.29669 10.9981 4.29135 11.1143 4.31749 11.2255C4.34362 11.3366 4.40019 11.4383 4.48084 11.519C4.5615 11.5998 4.66306 11.6566 4.77415 11.6829C4.88523 11.7092 5.00145 11.704 5.10978 11.668L9.71947 10.1313C9.81026 10.1012 9.89276 10.0502 9.9604 9.98258L15.1847 4.75786C15.7068 4.23468 16 3.52574 16 2.7866C16 2.04747 15.7068 1.33852 15.1847 0.815347ZM12.1116 1.68449C12.4054 1.39977 12.7994 1.24199 13.2085 1.24522C13.6176 1.24844 14.0091 1.41241 14.2984 1.70173C14.5877 1.99106 14.7517 2.38254 14.7549 2.79169C14.7581 3.20084 14.6003 3.59486 14.3156 3.88871L9.19335 9.01016L5.88666 10.1129L6.9893 6.80595L12.1116 1.68449ZM7.37406 2.47865C7.52484 2.47865 7.67481 2.48398 7.82396 2.49463L8.90939 1.40912C7.35357 1.0783 5.7325 1.25935 4.28798 1.92525C2.84346 2.59116 1.6529 3.70624 0.893897 5.10417C0.134889 6.5021 -0.151896 8.10796 0.0763201 9.68222C0.304536 11.2565 1.03552 12.7148 2.16024 13.8396C3.28497 14.9644 4.74315 15.6954 6.31729 15.9237C7.89143 16.1519 9.49717 15.8651 10.895 15.106C12.2928 14.347 13.4078 13.1563 14.0737 11.7117C14.7395 10.2671 14.9206 8.64586 14.5898 7.08993L13.5043 8.17667C13.515 8.32419 13.5203 8.47376 13.5203 8.62538C13.5203 9.84109 13.1598 11.0295 12.4845 12.0403C11.8091 13.0511 10.8492 13.839 9.72612 14.3042C8.60304 14.7694 7.36724 14.8912 6.17498 14.654C4.98272 14.4168 3.88757 13.8314 3.028 12.9718C2.16843 12.1121 1.58305 11.0169 1.3459 9.82454C1.10874 8.6322 1.23046 7.39629 1.69566 6.27313C2.16085 5.14996 2.94863 4.18997 3.95938 3.51456C4.97013 2.83915 6.15844 2.47865 7.37406 2.47865Z"/>
</mask>
<path d="M15.1847 0.815347C14.6616 0.293232 13.9527 0 13.2136 0C12.4745 0 11.7656 0.293232 11.2425 0.815347L6.01819 6.04006C5.9507 6.10736 5.89978 6.18943 5.86945 6.27979L4.33289 10.8898C4.29669 10.9981 4.29135 11.1143 4.31749 11.2255C4.34362 11.3366 4.40019 11.4383 4.48084 11.519C4.5615 11.5998 4.66306 11.6566 4.77415 11.6829C4.88523 11.7092 5.00145 11.704 5.10978 11.668L9.71947 10.1313C9.81026 10.1012 9.89276 10.0502 9.9604 9.98258L15.1847 4.75786C15.7068 4.23468 16 3.52574 16 2.7866C16 2.04747 15.7068 1.33852 15.1847 0.815347ZM12.1116 1.68449C12.4054 1.39977 12.7994 1.24199 13.2085 1.24522C13.6176 1.24844 14.0091 1.41241 14.2984 1.70173C14.5877 1.99106 14.7517 2.38254 14.7549 2.79169C14.7581 3.20084 14.6003 3.59486 14.3156 3.88871L9.19335 9.01016L5.88666 10.1129L6.9893 6.80595L12.1116 1.68449ZM7.37406 2.47865C7.52484 2.47865 7.67481 2.48398 7.82396 2.49463L8.90939 1.40912C7.35357 1.0783 5.7325 1.25935 4.28798 1.92525C2.84346 2.59116 1.6529 3.70624 0.893897 5.10417C0.134889 6.5021 -0.151896 8.10796 0.0763201 9.68222C0.304536 11.2565 1.03552 12.7148 2.16024 13.8396C3.28497 14.9644 4.74315 15.6954 6.31729 15.9237C7.89143 16.1519 9.49717 15.8651 10.895 15.106C12.2928 14.347 13.4078 13.1563 14.0737 11.7117C14.7395 10.2671 14.9206 8.64586 14.5898 7.08993L13.5043 8.17667C13.515 8.32419 13.5203 8.47376 13.5203 8.62538C13.5203 9.84109 13.1598 11.0295 12.4845 12.0403C11.8091 13.0511 10.8492 13.839 9.72612 14.3042C8.60304 14.7694 7.36724 14.8912 6.17498 14.654C4.98272 14.4168 3.88757 13.8314 3.028 12.9718C2.16843 12.1121 1.58305 11.0169 1.3459 9.82454C1.10874 8.6322 1.23046 7.39629 1.69566 6.27313C2.16085 5.14996 2.94863 4.18997 3.95938 3.51456C4.97013 2.83915 6.15844 2.47865 7.37406 2.47865Z" fill="#2196F3"/>
<path d="M15.1847 0.815347L50.5773 -34.5027L50.5414 -34.5387L50.5055 -34.5746L15.1847 0.815347ZM13.2136 0V-50V0ZM11.2425 0.815347L-24.0782 -34.5746L-24.0962 -34.5566L-24.1142 -34.5386L11.2425 0.815347ZM6.01819 6.04006L41.321 41.4478L41.348 41.421L41.3749 41.394L6.01819 6.04006ZM5.86945 6.27979L-41.5324 -9.62823L-41.5488 -9.57939L-41.5651 -9.53051L5.86945 6.27979ZM4.33289 10.8898L51.7527 26.7443L51.7601 26.7222L51.7674 26.7001L4.33289 10.8898ZM5.10978 11.668L20.8915 59.1121L20.9069 59.1069L20.9223 59.1018L5.10978 11.668ZM9.71947 10.1313L-6.04075 -37.3199L-6.06689 -37.3112L-6.09302 -37.3025L9.71947 10.1313ZM9.9604 9.98258L-25.3963 -25.3714L-25.4001 -25.3676L9.9604 9.98258ZM15.1847 4.75786L50.5414 40.1118L50.5594 40.0939L50.5773 40.0759L15.1847 4.75786ZM16 2.7866H-34H16ZM12.1116 1.68449L-22.6834 -34.2224L-22.9643 -33.9503L-23.2409 -33.6737L12.1116 1.68449ZM14.3156 3.88871L49.6681 39.2469L49.9489 38.9662L50.2252 38.681L14.3156 3.88871ZM9.19335 9.01016L25.0111 56.4422L36.2029 52.7099L44.5458 44.3684L9.19335 9.01016ZM5.88666 10.1129L-41.5461 -5.70269L-73.1861 89.1893L21.7045 57.5449L5.88666 10.1129ZM6.9893 6.80595L-28.3631 -28.5523L-36.71 -20.2068L-40.4435 -9.00963L6.9893 6.80595ZM7.82396 2.49463L4.26134 52.3675L27.0361 53.9944L43.1807 37.8486L7.82396 2.49463ZM8.90939 1.40912L44.2661 36.7631L109.371 -28.3471L19.3086 -47.4975L8.90939 1.40912ZM14.5898 7.08993L63.4967 -3.30775L44.3337 -93.4435L-20.787 -28.244L14.5898 7.08993ZM13.5043 8.17667L-21.8724 -27.1573L-38.0107 -10.9994L-36.3658 11.7781L13.5043 8.17667ZM13.5203 8.62538H-36.4797H13.5203ZM15.1847 0.815347L50.5055 -34.5746C40.6087 -44.4519 27.1971 -50 13.2136 -50V0V50C0.708238 50 -11.2856 45.0384 -20.136 36.2052L15.1847 0.815347ZM13.2136 0V-50C-0.769916 -50 -14.1815 -44.4519 -24.0782 -34.5746L11.2425 0.815347L46.5633 36.2052C37.7128 45.0384 25.719 50 13.2136 50V0ZM11.2425 0.815347L-24.1142 -34.5386L-29.3385 -29.3139L6.01819 6.04006L41.3749 41.394L46.5992 36.1693L11.2425 0.815347ZM6.01819 6.04006L-29.2846 -29.3677C-34.8426 -23.8262 -39.0355 -17.0683 -41.5324 -9.62823L5.86945 6.27979L53.2713 22.1878C50.8351 29.4472 46.744 36.0409 41.321 41.4478L6.01819 6.04006ZM5.86945 6.27979L-41.5651 -9.53051L-43.1016 -4.92046L4.33289 10.8898L51.7674 26.7001L53.304 22.0901L5.86945 6.27979ZM4.33289 10.8898L-43.0869 -4.96465C-46.0676 3.95045 -46.5068 13.5196 -44.355 22.6704L4.31749 11.2255L52.99 -0.219443C55.0895 8.70908 54.661 18.0458 51.7527 26.7443L4.33289 10.8898ZM4.31749 11.2255L-44.355 22.6704C-42.2033 31.8212 -37.5456 40.1922 -30.9038 46.8451L4.48084 11.519L39.8655 -23.807C46.346 -17.3157 50.8905 -9.14804 52.99 -0.219443L4.31749 11.2255ZM4.48084 11.519L-30.9038 46.8451C-24.2619 53.498 -15.8981 58.17 -6.74936 60.3368L4.77415 11.6829L16.2977 -36.9711C25.2242 -34.8569 33.3849 -30.2983 39.8655 -23.807L4.48084 11.519ZM4.77415 11.6829L-6.74936 60.3368C2.3991 62.5036 11.9703 62.0796 20.8915 59.1121L5.10978 11.668L-10.6719 -35.7761C-1.96744 -38.6715 7.37137 -39.0852 16.2977 -36.9711L4.77415 11.6829ZM5.10978 11.668L20.9223 59.1018L25.5319 57.5651L9.71947 10.1313L-6.09302 -37.3025L-10.7027 -35.7658L5.10978 11.668ZM9.71947 10.1313L25.4797 57.5825C32.957 55.099 39.7509 50.9044 45.3209 45.3328L9.9604 9.98258L-25.4001 -25.3676C-19.9654 -30.8039 -13.3365 -34.8967 -6.04075 -37.3199L9.71947 10.1313ZM9.9604 9.98258L45.3171 45.3366L50.5414 40.1118L15.1847 4.75786L-20.172 -30.5961L-25.3963 -25.3714L9.9604 9.98258ZM15.1847 4.75786L50.5773 40.0759C60.4538 30.1785 66 16.7677 66 2.7866H16H-34C-34 -9.71625 -29.0402 -21.7092 -20.2079 -30.5602L15.1847 4.75786ZM16 2.7866H66C66 -11.1945 60.4538 -24.6053 50.5773 -34.5027L15.1847 0.815347L-20.2079 36.1334C-29.0402 27.2824 -34 15.2895 -34 2.7866H16ZM12.1116 1.68449L46.9066 37.5914C37.7753 46.44 25.5304 51.3439 12.8144 51.2437L13.2085 1.24522L13.6026 -48.7532C0.0683767 -48.8599 -12.9644 -43.6404 -22.6834 -34.2224L12.1116 1.68449ZM13.2085 1.24522L12.8144 51.2437C0.0983969 51.1434 -12.0676 46.0471 -21.0583 37.0557L14.2984 1.70173L49.6551 -33.6523C40.0858 -43.2223 27.1369 -48.6465 13.6026 -48.7532L13.2085 1.24522ZM14.2984 1.70173L-21.0583 37.0557C-30.0488 28.0645 -35.1434 15.8993 -35.2436 3.18575L14.7549 2.79169L64.7533 2.39763C64.6467 -11.1343 59.2242 -24.0824 49.6551 -33.6523L14.2984 1.70173ZM14.7549 2.79169L-35.2436 3.18575C-35.3438 -9.52782 -30.4416 -21.7717 -21.594 -30.9036L14.3156 3.88871L50.2252 38.681C59.6423 28.9615 64.86 15.9295 64.7533 2.39763L14.7549 2.79169ZM14.3156 3.88871L-21.0368 -31.4695L-26.1591 -26.3481L9.19335 9.01016L44.5458 44.3684L49.6681 39.2469L14.3156 3.88871ZM9.19335 9.01016L-6.62444 -38.4219L-9.93113 -37.3191L5.88666 10.1129L21.7045 57.5449L25.0111 56.4422L9.19335 9.01016ZM5.88666 10.1129L53.3194 25.9285L54.4221 22.6215L6.9893 6.80595L-40.4435 -9.00963L-41.5461 -5.70269L5.88666 10.1129ZM6.9893 6.80595L42.3417 42.1642L47.464 37.0427L12.1116 1.68449L-23.2409 -33.6737L-28.3631 -28.5523L6.9893 6.80595ZM7.37406 2.47865V52.4787C6.34618 52.4787 5.30778 52.4423 4.26134 52.3675L7.82396 2.49463L11.3866 -47.3783C10.0418 -47.4743 8.70351 -47.5213 7.37406 -47.5213V2.47865ZM7.82396 2.49463L43.1807 37.8486L44.2661 36.7631L8.90939 1.40912L-26.4473 -33.9449L-27.5327 -32.8593L7.82396 2.49463ZM8.90939 1.40912L19.3086 -47.4975C7.20474 -50.0712 -5.40669 -48.6626 -16.6443 -43.4822L4.28798 1.92525L25.2203 47.3327C16.8717 51.1813 7.5024 52.2278 -1.48981 50.3157L8.90939 1.40912ZM4.28798 1.92525L-16.6443 -43.4822C-27.8819 -38.3018 -37.1431 -29.6274 -43.047 -18.7536L0.893897 5.10417L44.8348 28.962C40.4489 37.0399 33.5689 43.4841 25.2203 47.3327L4.28798 1.92525ZM0.893897 5.10417L-43.047 -18.7536C-48.9509 -7.87992 -51.1815 4.61083 -49.4064 16.8556L0.0763201 9.68222L49.5591 2.50885C50.8777 11.6051 49.2207 20.8841 44.8348 28.962L0.893897 5.10417ZM0.0763201 9.68222L-49.4064 16.8556C-47.6313 29.1004 -41.9456 40.4438 -33.1964 49.1936L2.16024 13.8396L37.5169 -21.5144C44.0166 -15.0142 48.2404 -6.58742 49.5591 2.50885L0.0763201 9.68222ZM2.16024 13.8396L-33.1964 49.1936C-24.4473 57.9434 -13.1036 63.6307 -0.857158 65.4063L6.31729 15.9237L13.4917 -33.5589C22.5899 -32.2398 31.0172 -28.0146 37.5169 -21.5144L2.16024 13.8396ZM6.31729 15.9237L-0.857158 65.4063C11.3893 67.1819 23.8814 64.9505 34.7556 59.0454L10.895 15.106L-12.9656 -28.8334C-4.88703 -33.2203 4.39359 -34.8781 13.4917 -33.5589L6.31729 15.9237ZM10.895 15.106L34.7556 59.0454C45.6298 53.1404 54.3031 43.8783 59.4823 32.6414L14.0737 11.7117L-31.335 -9.21799C-27.4874 -17.5656 -21.0442 -24.4464 -12.9656 -28.8334L10.895 15.106ZM14.0737 11.7117L59.4823 32.6414C64.6616 21.4045 66.0697 8.79456 63.4967 -3.30775L14.5898 7.08993L-34.3172 17.4876C-36.2286 8.49717 -35.1826 -0.870392 -31.335 -9.21799L14.0737 11.7117ZM14.5898 7.08993L-20.787 -28.244L-21.8724 -27.1573L13.5043 8.17667L48.881 43.5106L49.9665 42.4239L14.5898 7.08993ZM13.5043 8.17667L-36.3658 11.7781C-36.4438 10.6974 -36.4797 9.6453 -36.4797 8.62538H13.5203H63.5203C63.5203 7.30222 63.4738 5.95094 63.3745 4.57521L13.5043 8.17667ZM13.5203 8.62538H-36.4797C-36.4797 -0.0471192 -33.9082 -8.52518 -29.09 -15.7367L12.4845 12.0403L54.0589 39.8174C60.2279 30.5842 63.5203 19.7293 63.5203 8.62538H13.5203ZM12.4845 12.0403L-29.09 -15.7367C-24.2717 -22.9483 -17.423 -28.5696 -9.4093 -31.8892L9.72612 14.3042L28.8615 60.4977C39.1214 56.2476 47.89 49.0506 54.0589 39.8174L12.4845 12.0403ZM9.72612 14.3042L-9.4093 -31.8892C-1.3956 -35.2089 7.42267 -36.0775 15.9302 -34.3851L6.17498 14.654L-3.58026 63.6931C7.3118 65.8598 18.6017 64.7478 28.8615 60.4977L9.72612 14.3042ZM6.17498 14.654L15.9302 -34.3851C24.4377 -32.6927 32.2519 -28.5155 38.3847 -22.3822L3.028 12.9718L-32.3287 48.3258C-24.4768 56.1783 -14.4723 61.5264 -3.58026 63.6931L6.17498 14.654ZM3.028 12.9718L38.3847 -22.3822C44.5175 -16.249 48.6935 -8.43521 50.3853 0.0707494L1.3459 9.82454L-47.6935 19.5783C-45.5274 30.469 -40.1806 40.4732 -32.3287 48.3258L3.028 12.9718ZM1.3459 9.82454L50.3853 0.0707494C52.0771 8.57669 51.2089 17.3934 47.8902 25.406L1.69566 6.27313L-44.4988 -12.8598C-48.7479 -2.60079 -49.8596 8.6877 -47.6935 19.5783L1.3459 9.82454ZM1.69566 6.27313L47.8902 25.406C44.5714 33.4187 38.9511 40.2679 31.7394 45.0871L3.95938 3.51456L-23.8206 -38.0579C-33.0539 -31.888 -40.2497 -23.1188 -44.4988 -12.8598L1.69566 6.27313ZM3.95938 3.51456L31.7394 45.0871C24.5275 49.9062 16.0484 52.4787 7.37406 52.4787V2.47865V-47.5213C-3.73147 -47.5213 -14.5873 -44.2279 -23.8206 -38.0579L3.95938 3.51456Z" fill="#212529" mask="url(#path-1-inside-1_84_369)"/>
</svg>
