<svg width="16" height="20" viewBox="0 0 16 20" fill="none" xmlns="http://www.w3.org/2000/svg">
<path d="M11.75 11C11.75 10.8011 11.671 10.6103 11.5303 10.4697C11.3897 10.329 11.1989 10.25 11 10.25H5C4.80109 10.25 4.61032 10.329 4.46967 10.4697C4.32902 10.6103 4.25 10.8011 4.25 11C4.25 11.1989 4.32902 11.3897 4.46967 11.5303C4.61032 11.671 4.80109 11.75 5 11.75H11C11.1989 11.75 11.3897 11.671 11.5303 11.5303C11.671 11.3897 11.75 11.1989 11.75 11ZM11.75 15C11.75 14.8011 11.671 14.6103 11.5303 14.4697C11.3897 14.329 11.1989 14.25 11 14.25H5C4.80109 14.25 4.61032 14.329 4.46967 14.4697C4.32902 14.6103 4.25 14.8011 4.25 15C4.25 15.1989 4.32902 15.3897 4.46967 15.5303C4.61032 15.671 4.80109 15.75 5 15.75H11C11.1989 15.75 11.3897 15.671 11.5303 15.5303C11.671 15.3897 11.75 15.1989 11.75 15Z" fill="#212529"/>
<path fill-rule="evenodd" clip-rule="evenodd" d="M3 0.25C2.27065 0.25 1.57118 0.539731 1.05546 1.05546C0.539731 1.57118 0.25 2.27065 0.25 3V17C0.25 17.7293 0.539731 18.4288 1.05546 18.9445C1.57118 19.4603 2.27065 19.75 3 19.75H13C13.7293 19.75 14.4288 19.4603 14.9445 18.9445C15.4603 18.4288 15.75 17.7293 15.75 17V5.968C15.75 5.587 15.626 5.217 15.396 4.913L12.398 0.945C12.2349 0.729116 12.0239 0.553999 11.7817 0.433408C11.5395 0.312817 11.2726 0.250036 11.002 0.25H3ZM1.75 3C1.75 2.31 2.31 1.75 3 1.75H10.25V6.147C10.25 6.561 10.586 6.897 11 6.897H14.25V17C14.25 17.69 13.69 18.25 13 18.25H3C2.31 18.25 1.75 17.69 1.75 17V3Z" fill="#212529"/>
</svg>
